<mxfile host="app.diagrams.net" agent="Mozilla/5.0 (Windows NT 10.0; Win64; x64) AppleWebKit/537.36 (KHTML, like Gecko) Chrome/132.0.0.0 Safari/537.36 OPR/117.0.0.0" version="26.2.12">
  <diagram name="PÃ¡gina-1" id="iBMLi-koKuTabT3LaAzO">
    <mxGraphModel dx="1242" dy="1711" grid="1" gridSize="10" guides="1" tooltips="1" connect="1" arrows="1" fold="1" page="1" pageScale="1" pageWidth="827" pageHeight="1169" math="0" shadow="0">
      <root>
        <mxCell id="0" />
        <mxCell id="1" parent="0" />
        <mxCell id="Dgx6RVkLmMw38YC5Ss5f-1" value="1" style="rounded=0;whiteSpace=wrap;html=1;" parent="1" vertex="1">
          <mxGeometry x="70" y="40" width="60" height="60" as="geometry" />
        </mxCell>
        <mxCell id="Dgx6RVkLmMw38YC5Ss5f-2" value="2" style="rounded=0;whiteSpace=wrap;html=1;" parent="1" vertex="1">
          <mxGeometry x="130" y="40" width="60" height="60" as="geometry" />
        </mxCell>
        <mxCell id="Dgx6RVkLmMw38YC5Ss5f-3" value="3" style="rounded=0;whiteSpace=wrap;html=1;" parent="1" vertex="1">
          <mxGeometry x="190" y="40" width="60" height="60" as="geometry" />
        </mxCell>
        <mxCell id="Dgx6RVkLmMw38YC5Ss5f-4" value="4" style="rounded=0;whiteSpace=wrap;html=1;" parent="1" vertex="1">
          <mxGeometry x="250" y="40" width="60" height="60" as="geometry" />
        </mxCell>
        <mxCell id="Dgx6RVkLmMw38YC5Ss5f-5" value="5" style="rounded=0;whiteSpace=wrap;html=1;" parent="1" vertex="1">
          <mxGeometry x="70" y="130" width="60" height="60" as="geometry" />
        </mxCell>
        <mxCell id="Dgx6RVkLmMw38YC5Ss5f-6" value="6" style="rounded=0;whiteSpace=wrap;html=1;" parent="1" vertex="1">
          <mxGeometry x="130" y="130" width="60" height="60" as="geometry" />
        </mxCell>
        <mxCell id="Dgx6RVkLmMw38YC5Ss5f-7" value="7" style="rounded=0;whiteSpace=wrap;html=1;" parent="1" vertex="1">
          <mxGeometry x="190" y="130" width="60" height="60" as="geometry" />
        </mxCell>
        <mxCell id="Dgx6RVkLmMw38YC5Ss5f-9" value="8" style="rounded=0;whiteSpace=wrap;html=1;" parent="1" vertex="1">
          <mxGeometry x="70" y="220" width="60" height="60" as="geometry" />
        </mxCell>
        <mxCell id="Dgx6RVkLmMw38YC5Ss5f-10" value="9" style="rounded=0;whiteSpace=wrap;html=1;" parent="1" vertex="1">
          <mxGeometry x="130" y="220" width="60" height="60" as="geometry" />
        </mxCell>
        <mxCell id="Dgx6RVkLmMw38YC5Ss5f-11" value="10" style="rounded=0;whiteSpace=wrap;html=1;" parent="1" vertex="1">
          <mxGeometry x="190" y="220" width="60" height="60" as="geometry" />
        </mxCell>
        <mxCell id="Dgx6RVkLmMw38YC5Ss5f-13" value="A =" style="text;html=1;align=center;verticalAlign=middle;resizable=0;points=[];autosize=1;strokeColor=none;fillColor=none;" parent="1" vertex="1">
          <mxGeometry x="20" y="55" width="40" height="30" as="geometry" />
        </mxCell>
        <mxCell id="Dgx6RVkLmMw38YC5Ss5f-14" value="B =" style="text;html=1;align=center;verticalAlign=middle;resizable=0;points=[];autosize=1;strokeColor=none;fillColor=none;" parent="1" vertex="1">
          <mxGeometry x="20" y="145" width="40" height="30" as="geometry" />
        </mxCell>
        <mxCell id="Dgx6RVkLmMw38YC5Ss5f-15" value="C =" style="text;html=1;align=center;verticalAlign=middle;resizable=0;points=[];autosize=1;strokeColor=none;fillColor=none;" parent="1" vertex="1">
          <mxGeometry x="20" y="235" width="40" height="30" as="geometry" />
        </mxCell>
        <mxCell id="Jn5P7cMehSicQ2Jzzdcr-14" value="" style="shape=flexArrow;endArrow=classic;html=1;rounded=0;" edge="1" parent="1">
          <mxGeometry width="50" height="50" relative="1" as="geometry">
            <mxPoint x="330" y="160" as="sourcePoint" />
            <mxPoint x="410" y="160" as="targetPoint" />
          </mxGeometry>
        </mxCell>
        <mxCell id="Jn5P7cMehSicQ2Jzzdcr-15" value="1" style="rounded=0;whiteSpace=wrap;html=1;" vertex="1" parent="1">
          <mxGeometry x="487" y="40" width="60" height="60" as="geometry" />
        </mxCell>
        <mxCell id="Jn5P7cMehSicQ2Jzzdcr-16" value="2" style="rounded=0;whiteSpace=wrap;html=1;" vertex="1" parent="1">
          <mxGeometry x="547" y="40" width="60" height="60" as="geometry" />
        </mxCell>
        <mxCell id="Jn5P7cMehSicQ2Jzzdcr-17" value="3" style="rounded=0;whiteSpace=wrap;html=1;" vertex="1" parent="1">
          <mxGeometry x="607" y="40" width="60" height="60" as="geometry" />
        </mxCell>
        <mxCell id="Jn5P7cMehSicQ2Jzzdcr-18" value="4" style="rounded=0;whiteSpace=wrap;html=1;" vertex="1" parent="1">
          <mxGeometry x="500" y="-150" width="60" height="60" as="geometry" />
        </mxCell>
        <mxCell id="Jn5P7cMehSicQ2Jzzdcr-19" value="5" style="rounded=0;whiteSpace=wrap;html=1;" vertex="1" parent="1">
          <mxGeometry x="487" y="130" width="60" height="60" as="geometry" />
        </mxCell>
        <mxCell id="Jn5P7cMehSicQ2Jzzdcr-20" value="6" style="rounded=0;whiteSpace=wrap;html=1;" vertex="1" parent="1">
          <mxGeometry x="547" y="130" width="60" height="60" as="geometry" />
        </mxCell>
        <mxCell id="Jn5P7cMehSicQ2Jzzdcr-21" value="7" style="rounded=0;whiteSpace=wrap;html=1;" vertex="1" parent="1">
          <mxGeometry x="607" y="130" width="60" height="60" as="geometry" />
        </mxCell>
        <mxCell id="Jn5P7cMehSicQ2Jzzdcr-22" value="8" style="rounded=0;whiteSpace=wrap;html=1;" vertex="1" parent="1">
          <mxGeometry x="487" y="220" width="60" height="60" as="geometry" />
        </mxCell>
        <mxCell id="Jn5P7cMehSicQ2Jzzdcr-23" value="9" style="rounded=0;whiteSpace=wrap;html=1;" vertex="1" parent="1">
          <mxGeometry x="547" y="220" width="60" height="60" as="geometry" />
        </mxCell>
        <mxCell id="Jn5P7cMehSicQ2Jzzdcr-24" value="10" style="rounded=0;whiteSpace=wrap;html=1;" vertex="1" parent="1">
          <mxGeometry x="607" y="220" width="60" height="60" as="geometry" />
        </mxCell>
        <mxCell id="Jn5P7cMehSicQ2Jzzdcr-25" value="A =" style="text;html=1;align=center;verticalAlign=middle;resizable=0;points=[];autosize=1;strokeColor=none;fillColor=none;" vertex="1" parent="1">
          <mxGeometry x="437" y="55" width="40" height="30" as="geometry" />
        </mxCell>
        <mxCell id="Jn5P7cMehSicQ2Jzzdcr-26" value="B =" style="text;html=1;align=center;verticalAlign=middle;resizable=0;points=[];autosize=1;strokeColor=none;fillColor=none;" vertex="1" parent="1">
          <mxGeometry x="437" y="145" width="40" height="30" as="geometry" />
        </mxCell>
        <mxCell id="Jn5P7cMehSicQ2Jzzdcr-27" value="C =" style="text;html=1;align=center;verticalAlign=middle;resizable=0;points=[];autosize=1;strokeColor=none;fillColor=none;" vertex="1" parent="1">
          <mxGeometry x="437" y="235" width="40" height="30" as="geometry" />
        </mxCell>
        <mxCell id="Jn5P7cMehSicQ2Jzzdcr-28" value="" style="shape=flexArrow;endArrow=classic;html=1;rounded=0;" edge="1" parent="1">
          <mxGeometry width="50" height="50" relative="1" as="geometry">
            <mxPoint x="747" y="160" as="sourcePoint" />
            <mxPoint x="827" y="160" as="targetPoint" />
          </mxGeometry>
        </mxCell>
        <mxCell id="Jn5P7cMehSicQ2Jzzdcr-29" value="1" style="rounded=0;whiteSpace=wrap;html=1;" vertex="1" parent="1">
          <mxGeometry x="901" y="40" width="60" height="60" as="geometry" />
        </mxCell>
        <mxCell id="Jn5P7cMehSicQ2Jzzdcr-30" value="2" style="rounded=0;whiteSpace=wrap;html=1;" vertex="1" parent="1">
          <mxGeometry x="961" y="40" width="60" height="60" as="geometry" />
        </mxCell>
        <mxCell id="Jn5P7cMehSicQ2Jzzdcr-31" value="3" style="rounded=0;whiteSpace=wrap;html=1;" vertex="1" parent="1">
          <mxGeometry x="1021" y="40" width="60" height="60" as="geometry" />
        </mxCell>
        <mxCell id="Jn5P7cMehSicQ2Jzzdcr-32" value="4" style="rounded=0;whiteSpace=wrap;html=1;" vertex="1" parent="1">
          <mxGeometry x="901" y="130" width="60" height="60" as="geometry" />
        </mxCell>
        <mxCell id="Jn5P7cMehSicQ2Jzzdcr-33" value="5" style="rounded=0;whiteSpace=wrap;html=1;" vertex="1" parent="1">
          <mxGeometry x="961" y="130" width="60" height="60" as="geometry" />
        </mxCell>
        <mxCell id="Jn5P7cMehSicQ2Jzzdcr-34" value="6" style="rounded=0;whiteSpace=wrap;html=1;" vertex="1" parent="1">
          <mxGeometry x="1021" y="130" width="60" height="60" as="geometry" />
        </mxCell>
        <mxCell id="Jn5P7cMehSicQ2Jzzdcr-35" value="7" style="rounded=0;whiteSpace=wrap;html=1;" vertex="1" parent="1">
          <mxGeometry x="1081" y="130" width="60" height="60" as="geometry" />
        </mxCell>
        <mxCell id="Jn5P7cMehSicQ2Jzzdcr-36" value="8" style="rounded=0;whiteSpace=wrap;html=1;" vertex="1" parent="1">
          <mxGeometry x="901" y="220" width="60" height="60" as="geometry" />
        </mxCell>
        <mxCell id="Jn5P7cMehSicQ2Jzzdcr-37" value="9" style="rounded=0;whiteSpace=wrap;html=1;" vertex="1" parent="1">
          <mxGeometry x="961" y="220" width="60" height="60" as="geometry" />
        </mxCell>
        <mxCell id="Jn5P7cMehSicQ2Jzzdcr-38" value="10" style="rounded=0;whiteSpace=wrap;html=1;" vertex="1" parent="1">
          <mxGeometry x="1021" y="220" width="60" height="60" as="geometry" />
        </mxCell>
        <mxCell id="Jn5P7cMehSicQ2Jzzdcr-39" value="A =" style="text;html=1;align=center;verticalAlign=middle;resizable=0;points=[];autosize=1;strokeColor=none;fillColor=none;" vertex="1" parent="1">
          <mxGeometry x="851" y="55" width="40" height="30" as="geometry" />
        </mxCell>
        <mxCell id="Jn5P7cMehSicQ2Jzzdcr-40" value="B =" style="text;html=1;align=center;verticalAlign=middle;resizable=0;points=[];autosize=1;strokeColor=none;fillColor=none;" vertex="1" parent="1">
          <mxGeometry x="851" y="145" width="40" height="30" as="geometry" />
        </mxCell>
        <mxCell id="Jn5P7cMehSicQ2Jzzdcr-41" value="C =" style="text;html=1;align=center;verticalAlign=middle;resizable=0;points=[];autosize=1;strokeColor=none;fillColor=none;" vertex="1" parent="1">
          <mxGeometry x="851" y="235" width="40" height="30" as="geometry" />
        </mxCell>
        <mxCell id="Jn5P7cMehSicQ2Jzzdcr-42" value="" style="shape=flexArrow;endArrow=classic;html=1;rounded=0;" edge="1" parent="1">
          <mxGeometry width="50" height="50" relative="1" as="geometry">
            <mxPoint x="1161" y="160" as="sourcePoint" />
            <mxPoint x="1241" y="160" as="targetPoint" />
          </mxGeometry>
        </mxCell>
        <mxCell id="Jn5P7cMehSicQ2Jzzdcr-43" value="4" style="rounded=0;whiteSpace=wrap;html=1;" vertex="1" parent="1">
          <mxGeometry x="1300" y="220" width="60" height="60" as="geometry" />
        </mxCell>
        <mxCell id="Jn5P7cMehSicQ2Jzzdcr-44" value="1" style="rounded=0;whiteSpace=wrap;html=1;" vertex="1" parent="1">
          <mxGeometry x="1300" y="40" width="60" height="60" as="geometry" />
        </mxCell>
        <mxCell id="Jn5P7cMehSicQ2Jzzdcr-45" value="2" style="rounded=0;whiteSpace=wrap;html=1;" vertex="1" parent="1">
          <mxGeometry x="1360" y="40" width="60" height="60" as="geometry" />
        </mxCell>
        <mxCell id="Jn5P7cMehSicQ2Jzzdcr-46" value="3" style="rounded=0;whiteSpace=wrap;html=1;" vertex="1" parent="1">
          <mxGeometry x="1420" y="40" width="60" height="60" as="geometry" />
        </mxCell>
        <mxCell id="Jn5P7cMehSicQ2Jzzdcr-47" value="4" style="rounded=0;whiteSpace=wrap;html=1;" vertex="1" parent="1">
          <mxGeometry x="1300" y="130" width="60" height="60" as="geometry" />
        </mxCell>
        <mxCell id="Jn5P7cMehSicQ2Jzzdcr-48" value="5" style="rounded=0;whiteSpace=wrap;html=1;" vertex="1" parent="1">
          <mxGeometry x="1360" y="130" width="60" height="60" as="geometry" />
        </mxCell>
        <mxCell id="Jn5P7cMehSicQ2Jzzdcr-49" value="6" style="rounded=0;whiteSpace=wrap;html=1;" vertex="1" parent="1">
          <mxGeometry x="1420" y="130" width="60" height="60" as="geometry" />
        </mxCell>
        <mxCell id="Jn5P7cMehSicQ2Jzzdcr-50" value="7" style="rounded=0;whiteSpace=wrap;html=1;" vertex="1" parent="1">
          <mxGeometry x="1480" y="130" width="60" height="60" as="geometry" />
        </mxCell>
        <mxCell id="Jn5P7cMehSicQ2Jzzdcr-51" value="8" style="rounded=0;whiteSpace=wrap;html=1;" vertex="1" parent="1">
          <mxGeometry x="1360" y="220" width="60" height="60" as="geometry" />
        </mxCell>
        <mxCell id="Jn5P7cMehSicQ2Jzzdcr-52" value="9" style="rounded=0;whiteSpace=wrap;html=1;" vertex="1" parent="1">
          <mxGeometry x="1420" y="220" width="60" height="60" as="geometry" />
        </mxCell>
        <mxCell id="Jn5P7cMehSicQ2Jzzdcr-53" value="10" style="rounded=0;whiteSpace=wrap;html=1;" vertex="1" parent="1">
          <mxGeometry x="1480" y="220" width="60" height="60" as="geometry" />
        </mxCell>
        <mxCell id="Jn5P7cMehSicQ2Jzzdcr-54" value="A =" style="text;html=1;align=center;verticalAlign=middle;resizable=0;points=[];autosize=1;strokeColor=none;fillColor=none;" vertex="1" parent="1">
          <mxGeometry x="1250" y="55" width="40" height="30" as="geometry" />
        </mxCell>
        <mxCell id="Jn5P7cMehSicQ2Jzzdcr-55" value="B =" style="text;html=1;align=center;verticalAlign=middle;resizable=0;points=[];autosize=1;strokeColor=none;fillColor=none;" vertex="1" parent="1">
          <mxGeometry x="1250" y="145" width="40" height="30" as="geometry" />
        </mxCell>
        <mxCell id="Jn5P7cMehSicQ2Jzzdcr-56" value="C =" style="text;html=1;align=center;verticalAlign=middle;resizable=0;points=[];autosize=1;strokeColor=none;fillColor=none;" vertex="1" parent="1">
          <mxGeometry x="1250" y="235" width="40" height="30" as="geometry" />
        </mxCell>
        <mxCell id="Jn5P7cMehSicQ2Jzzdcr-57" value="" style="shape=flexArrow;endArrow=classic;html=1;rounded=0;" edge="1" parent="1">
          <mxGeometry width="50" height="50" relative="1" as="geometry">
            <mxPoint x="1560" y="160" as="sourcePoint" />
            <mxPoint x="1640" y="160" as="targetPoint" />
          </mxGeometry>
        </mxCell>
        <mxCell id="Jn5P7cMehSicQ2Jzzdcr-58" value="4" style="rounded=0;whiteSpace=wrap;html=1;" vertex="1" parent="1">
          <mxGeometry x="930" y="-60" width="60" height="60" as="geometry" />
        </mxCell>
        <mxCell id="Jn5P7cMehSicQ2Jzzdcr-59" value="4" style="rounded=0;whiteSpace=wrap;html=1;" vertex="1" parent="1">
          <mxGeometry x="1704" y="220" width="60" height="60" as="geometry" />
        </mxCell>
        <mxCell id="Jn5P7cMehSicQ2Jzzdcr-60" value="1" style="rounded=0;whiteSpace=wrap;html=1;" vertex="1" parent="1">
          <mxGeometry x="1704" y="40" width="60" height="60" as="geometry" />
        </mxCell>
        <mxCell id="Jn5P7cMehSicQ2Jzzdcr-61" value="2" style="rounded=0;whiteSpace=wrap;html=1;" vertex="1" parent="1">
          <mxGeometry x="1764" y="40" width="60" height="60" as="geometry" />
        </mxCell>
        <mxCell id="Jn5P7cMehSicQ2Jzzdcr-62" value="3" style="rounded=0;whiteSpace=wrap;html=1;" vertex="1" parent="1">
          <mxGeometry x="1824" y="40" width="60" height="60" as="geometry" />
        </mxCell>
        <mxCell id="Jn5P7cMehSicQ2Jzzdcr-63" value="4" style="rounded=0;whiteSpace=wrap;html=1;" vertex="1" parent="1">
          <mxGeometry x="1704" y="130" width="60" height="60" as="geometry" />
        </mxCell>
        <mxCell id="Jn5P7cMehSicQ2Jzzdcr-64" value="5" style="rounded=0;whiteSpace=wrap;html=1;" vertex="1" parent="1">
          <mxGeometry x="1764" y="130" width="60" height="60" as="geometry" />
        </mxCell>
        <mxCell id="Jn5P7cMehSicQ2Jzzdcr-65" value="6" style="rounded=0;whiteSpace=wrap;html=1;" vertex="1" parent="1">
          <mxGeometry x="1824" y="130" width="60" height="60" as="geometry" />
        </mxCell>
        <mxCell id="Jn5P7cMehSicQ2Jzzdcr-66" value="7" style="rounded=0;whiteSpace=wrap;html=1;" vertex="1" parent="1">
          <mxGeometry x="1770" y="-170" width="60" height="60" as="geometry" />
        </mxCell>
        <mxCell id="Jn5P7cMehSicQ2Jzzdcr-67" value="8" style="rounded=0;whiteSpace=wrap;html=1;" vertex="1" parent="1">
          <mxGeometry x="1764" y="220" width="60" height="60" as="geometry" />
        </mxCell>
        <mxCell id="Jn5P7cMehSicQ2Jzzdcr-68" value="9" style="rounded=0;whiteSpace=wrap;html=1;" vertex="1" parent="1">
          <mxGeometry x="1824" y="220" width="60" height="60" as="geometry" />
        </mxCell>
        <mxCell id="Jn5P7cMehSicQ2Jzzdcr-69" value="10" style="rounded=0;whiteSpace=wrap;html=1;" vertex="1" parent="1">
          <mxGeometry x="1770" y="-80" width="60" height="60" as="geometry" />
        </mxCell>
        <mxCell id="Jn5P7cMehSicQ2Jzzdcr-70" value="A =" style="text;html=1;align=center;verticalAlign=middle;resizable=0;points=[];autosize=1;strokeColor=none;fillColor=none;" vertex="1" parent="1">
          <mxGeometry x="1654" y="55" width="40" height="30" as="geometry" />
        </mxCell>
        <mxCell id="Jn5P7cMehSicQ2Jzzdcr-71" value="B =" style="text;html=1;align=center;verticalAlign=middle;resizable=0;points=[];autosize=1;strokeColor=none;fillColor=none;" vertex="1" parent="1">
          <mxGeometry x="1654" y="145" width="40" height="30" as="geometry" />
        </mxCell>
        <mxCell id="Jn5P7cMehSicQ2Jzzdcr-72" value="C =" style="text;html=1;align=center;verticalAlign=middle;resizable=0;points=[];autosize=1;strokeColor=none;fillColor=none;" vertex="1" parent="1">
          <mxGeometry x="1654" y="235" width="40" height="30" as="geometry" />
        </mxCell>
        <mxCell id="Jn5P7cMehSicQ2Jzzdcr-73" value="" style="shape=flexArrow;endArrow=classic;html=1;rounded=0;" edge="1" parent="1">
          <mxGeometry width="50" height="50" relative="1" as="geometry">
            <mxPoint x="1964" y="160" as="sourcePoint" />
            <mxPoint x="2044" y="160" as="targetPoint" />
          </mxGeometry>
        </mxCell>
        <mxCell id="Jn5P7cMehSicQ2Jzzdcr-74" value="-B =" style="text;html=1;align=center;verticalAlign=middle;resizable=0;points=[];autosize=1;strokeColor=none;fillColor=none;" vertex="1" parent="1">
          <mxGeometry x="1709" y="-155" width="50" height="30" as="geometry" />
        </mxCell>
        <mxCell id="Jn5P7cMehSicQ2Jzzdcr-75" value="-C =" style="text;html=1;align=center;verticalAlign=middle;resizable=0;points=[];autosize=1;strokeColor=none;fillColor=none;" vertex="1" parent="1">
          <mxGeometry x="1714" y="-65" width="50" height="30" as="geometry" />
        </mxCell>
        <mxCell id="Jn5P7cMehSicQ2Jzzdcr-86" value="4" style="rounded=0;whiteSpace=wrap;html=1;" vertex="1" parent="1">
          <mxGeometry x="2118" y="220" width="60" height="60" as="geometry" />
        </mxCell>
        <mxCell id="Jn5P7cMehSicQ2Jzzdcr-87" value="1" style="rounded=0;whiteSpace=wrap;html=1;" vertex="1" parent="1">
          <mxGeometry x="2178" y="40" width="60" height="60" as="geometry" />
        </mxCell>
        <mxCell id="Jn5P7cMehSicQ2Jzzdcr-88" value="2" style="rounded=0;whiteSpace=wrap;html=1;" vertex="1" parent="1">
          <mxGeometry x="2238" y="40" width="60" height="60" as="geometry" />
        </mxCell>
        <mxCell id="Jn5P7cMehSicQ2Jzzdcr-89" value="3" style="rounded=0;whiteSpace=wrap;html=1;" vertex="1" parent="1">
          <mxGeometry x="2298" y="40" width="60" height="60" as="geometry" />
        </mxCell>
        <mxCell id="Jn5P7cMehSicQ2Jzzdcr-90" value="4" style="rounded=0;whiteSpace=wrap;html=1;" vertex="1" parent="1">
          <mxGeometry x="2178" y="130" width="60" height="60" as="geometry" />
        </mxCell>
        <mxCell id="Jn5P7cMehSicQ2Jzzdcr-91" value="5" style="rounded=0;whiteSpace=wrap;html=1;" vertex="1" parent="1">
          <mxGeometry x="2238" y="130" width="60" height="60" as="geometry" />
        </mxCell>
        <mxCell id="Jn5P7cMehSicQ2Jzzdcr-92" value="6" style="rounded=0;whiteSpace=wrap;html=1;" vertex="1" parent="1">
          <mxGeometry x="2298" y="130" width="60" height="60" as="geometry" />
        </mxCell>
        <mxCell id="Jn5P7cMehSicQ2Jzzdcr-93" value="8" style="rounded=0;whiteSpace=wrap;html=1;" vertex="1" parent="1">
          <mxGeometry x="2178" y="220" width="60" height="60" as="geometry" />
        </mxCell>
        <mxCell id="Jn5P7cMehSicQ2Jzzdcr-94" value="9" style="rounded=0;whiteSpace=wrap;html=1;" vertex="1" parent="1">
          <mxGeometry x="2238" y="220" width="60" height="60" as="geometry" />
        </mxCell>
        <mxCell id="Jn5P7cMehSicQ2Jzzdcr-95" value="A =" style="text;html=1;align=center;verticalAlign=middle;resizable=0;points=[];autosize=1;strokeColor=none;fillColor=none;" vertex="1" parent="1">
          <mxGeometry x="2068" y="55" width="40" height="30" as="geometry" />
        </mxCell>
        <mxCell id="Jn5P7cMehSicQ2Jzzdcr-96" value="B =" style="text;html=1;align=center;verticalAlign=middle;resizable=0;points=[];autosize=1;strokeColor=none;fillColor=none;" vertex="1" parent="1">
          <mxGeometry x="2068" y="145" width="40" height="30" as="geometry" />
        </mxCell>
        <mxCell id="Jn5P7cMehSicQ2Jzzdcr-97" value="C =" style="text;html=1;align=center;verticalAlign=middle;resizable=0;points=[];autosize=1;strokeColor=none;fillColor=none;" vertex="1" parent="1">
          <mxGeometry x="2068" y="235" width="40" height="30" as="geometry" />
        </mxCell>
        <mxCell id="Jn5P7cMehSicQ2Jzzdcr-98" value="10" style="rounded=0;whiteSpace=wrap;html=1;" vertex="1" parent="1">
          <mxGeometry x="2118" y="40" width="60" height="60" as="geometry" />
        </mxCell>
        <mxCell id="Jn5P7cMehSicQ2Jzzdcr-99" value="10" style="rounded=0;whiteSpace=wrap;html=1;" vertex="1" parent="1">
          <mxGeometry x="2118" y="130" width="60" height="60" as="geometry" />
        </mxCell>
      </root>
    </mxGraphModel>
  </diagram>
</mxfile>
